<?xml version="1.0" encoding="utf-8"?>
<!-- Generator: Adobe Illustrator 15.1.0, SVG Export Plug-In . SVG Version: 6.00 Build 0)  -->
<!DOCTYPE svg PUBLIC "-//W3C//DTD SVG 1.1//EN" "http://www.w3.org/Graphics/SVG/1.1/DTD/svg11.dtd">
<svg version="1.1" id="Layer_1" xmlns="http://www.w3.org/2000/svg" xmlns:xlink="http://www.w3.org/1999/xlink" x="0px" y="0px"
	 width="970px" height="970px" viewBox="0 0 970 970" enable-background="new 0 0 970 970" xml:space="preserve">
<rect x="-39.362" y="-37.733" fill="#FFFFFF" width="1047.103" height="1047.104"/>
<title>Artboard 5</title>
<desc>Created with Sketch.</desc>
<g id="Page-1">
	<g id="Artboard-5">
		<path id="Combined-Shape" d="M213.169,794c72.558,64.1,167.902,103,272.331,103s199.772-38.9,272.331-103H213.169z
			 M191.479,773.396L437,484L192.846,196.214C119.367,270.544,74,372.724,74,485.5C74,597.575,118.805,699.186,191.479,773.396z
			 M216.603,174h537.793C682.277,111.688,588.29,74,485.5,74S288.723,111.688,216.603,174z M779.068,197.142L532,484
			l248.441,288.453C852.573,698.325,897,597.101,897,485.5C897,373.192,852.009,271.393,779.068,197.142z M485,970
			C217.142,970,0,752.858,0,485C0,217.142,217.142,0,485,0c267.858,0,485,217.142,485,485C970,752.858,752.858,970,485,970z
			 M484,538l-85.105,99.738L322,724h324l-75.131-86.262L484,538z M484,432l162-186H322L484,432z"/>
	</g>
</g>
<rect x="148.286" y="511.986" width="140.01" height="140.01"/>
<rect x="34.309" y="830.362" width="100" height="100"/>
<rect x="34.309" y="33.96" width="100" height="100"/>
<rect x="832.349" y="33.96" width="100" height="100"/>
</svg>
